<svg width="214" height="48" viewBox="0 0 214 48" fill="none" xmlns="http://www.w3.org/2000/svg">
<path d="M18.008 48C14.5901 48 11.514 47.2523 8.77968 45.757C6.04538 44.219 3.88784 42.0614 2.30707 39.2844C0.769023 36.5073 0 33.3031 0 29.6716C0 26.0401 0.790385 22.8358 2.37116 20.0587C3.99465 17.2817 6.19491 15.1455 8.97194 13.6502C11.749 12.1121 14.8464 11.3431 18.2643 11.3431C21.6822 11.3431 24.7796 12.1121 27.5567 13.6502C30.3337 15.1455 32.5126 17.2817 34.0934 20.0587C35.7169 22.8358 36.5286 26.0401 36.5286 29.6716C36.5286 33.3031 35.6955 36.5073 34.0293 39.2844C32.4058 42.0614 30.1842 44.219 27.3644 45.757C24.5874 47.2523 21.4686 48 18.008 48ZM18.008 40.1816C19.6315 40.1816 21.1481 39.7971 22.558 39.028C24.0106 38.2163 25.1642 37.02 26.0186 35.4393C26.8731 33.8585 27.3003 31.9359 27.3003 29.6716C27.3003 26.2964 26.4031 23.7116 24.6087 21.9172C22.8571 20.0801 20.6995 19.1615 18.1361 19.1615C15.5727 19.1615 13.4152 20.0801 11.6635 21.9172C9.95458 23.7116 9.10011 26.2964 9.10011 29.6716C9.10011 33.0467 9.93322 35.6529 11.5994 37.49C13.3084 39.2844 15.4446 40.1816 18.008 40.1816Z" fill="#fff"/>
<path d="M38.5598 29.6716C38.5598 25.9973 39.3075 22.7931 40.8028 20.0587C42.2981 17.2817 44.3702 15.1455 47.0191 13.6502C49.6679 12.1121 52.7013 11.3431 56.1192 11.3431C60.5197 11.3431 64.1512 12.4539 67.0137 14.6756C69.9189 16.8545 71.8628 19.9306 72.8454 23.9039H63.1686C62.6559 22.3658 61.78 21.1696 60.5411 20.3151C59.3448 19.4179 57.8495 18.9693 56.0551 18.9693C53.4917 18.9693 51.4623 19.9092 49.967 21.7891C48.4717 23.6262 47.724 26.2537 47.724 29.6716C47.724 33.0467 48.4717 35.6742 49.967 37.5541C51.4623 39.3912 53.4917 40.3097 56.0551 40.3097C59.6866 40.3097 62.0578 38.6863 63.1686 35.4393H72.8454C71.8628 39.2844 69.9189 42.3391 67.0137 44.6035C64.1085 46.8678 60.477 48 56.1192 48C52.7013 48 49.6679 47.2523 47.0191 45.757C44.3702 44.219 42.2981 42.0828 40.8028 39.3485C39.3075 36.5714 38.5598 33.3458 38.5598 29.6716Z" fill="#fff"/>
<path d="M92.9402 48C89.5223 48 86.4462 47.2523 83.7119 45.757C80.9776 44.219 78.8201 42.0614 77.2393 39.2844C75.7012 36.5073 74.9322 33.3031 74.9322 29.6716C74.9322 26.0401 75.7226 22.8358 77.3034 20.0587C78.9269 17.2817 81.1271 15.1455 83.9042 13.6502C86.6812 12.1121 89.7786 11.3431 93.1965 11.3431C96.6144 11.3431 99.7119 12.1121 102.489 13.6502C105.266 15.1455 107.445 17.2817 109.026 20.0587C110.649 22.8358 111.461 26.0401 111.461 29.6716C111.461 33.3031 110.628 36.5073 108.962 39.2844C107.338 42.0614 105.116 44.219 102.297 45.757C99.5196 47.2523 96.4008 48 92.9402 48ZM92.9402 40.1816C94.5637 40.1816 96.0804 39.7971 97.4902 39.028C98.9428 38.2163 100.096 37.02 100.951 35.4393C101.805 33.8585 102.233 31.9359 102.233 29.6716C102.233 26.2964 101.335 23.7116 99.541 21.9172C97.7893 20.0801 95.6318 19.1615 93.0684 19.1615C90.5049 19.1615 88.3474 20.0801 86.5957 21.9172C84.8868 23.7116 84.0323 26.2964 84.0323 29.6716C84.0323 33.0467 84.8654 35.6529 86.5317 37.49C88.2406 39.2844 90.3768 40.1816 92.9402 40.1816Z" fill="#fff"/>
<path d="M124.771 0V47.4232H115.799V0H124.771Z" fill="#fff"/>
<path d="M164.909 11.9199V47.4232H155.873V42.9373C154.719 44.4753 153.203 45.6929 151.323 46.5901C149.486 47.4446 147.478 47.8718 145.299 47.8718C142.522 47.8718 140.065 47.2951 137.929 46.1415C135.793 44.9453 134.105 43.215 132.866 40.9506C131.67 38.6435 131.072 35.9092 131.072 32.7477V11.9199H140.044V31.466C140.044 34.2857 140.749 36.4646 142.159 38.0027C143.569 39.498 145.491 40.2457 147.926 40.2457C150.404 40.2457 152.348 39.498 153.758 38.0027C155.168 36.4646 155.873 34.2857 155.873 31.466V11.9199H164.909Z" fill="#fff"/>
<path d="M185.104 48C182.199 48 179.593 47.4873 177.286 46.4619C174.979 45.3939 173.142 43.9626 171.775 42.1682C170.45 40.3738 169.724 38.3872 169.596 36.2083H178.632C178.803 37.5754 179.465 38.7076 180.618 39.6048C181.815 40.502 183.289 40.9506 185.04 40.9506C186.749 40.9506 188.074 40.6088 189.014 39.9252C189.996 39.2417 190.487 38.3658 190.487 37.2977C190.487 36.1442 189.889 35.2897 188.693 34.7343C187.54 34.1362 185.681 33.4953 183.118 32.8117C180.469 32.1709 178.29 31.5087 176.581 30.8251C174.915 30.1415 173.462 29.0948 172.223 27.6849C171.027 26.275 170.429 24.3738 170.429 21.9813C170.429 20.016 170.984 18.2216 172.095 16.5981C173.249 14.9746 174.872 13.6929 176.965 12.753C179.102 11.8131 181.601 11.3431 184.463 11.3431C188.693 11.3431 192.068 12.4112 194.589 14.5474C197.11 16.6409 198.498 19.482 198.754 23.0708H190.167C190.039 21.6609 189.441 20.5501 188.373 19.7383C187.347 18.8838 185.959 18.4566 184.207 18.4566C182.584 18.4566 181.323 18.7557 180.426 19.3538C179.572 19.9519 179.144 20.785 179.144 21.8531C179.144 23.0494 179.743 23.968 180.939 24.6088C182.135 25.2069 183.994 25.8264 186.514 26.4673C189.078 27.1081 191.192 27.7704 192.859 28.4539C194.525 29.1375 195.956 30.2056 197.152 31.6582C198.391 33.0681 199.032 34.9479 199.075 37.2977C199.075 39.3485 198.498 41.1856 197.345 42.8091C196.234 44.4326 194.61 45.7143 192.474 46.6542C190.381 47.5514 187.924 48 185.104 48Z" fill="#fff"/>
<path d="M208.17 47.8718C206.547 47.8718 205.201 47.3805 204.133 46.3979C203.107 45.3725 202.595 44.1122 202.595 42.6168C202.595 41.1215 203.107 39.8825 204.133 38.8999C205.201 37.8745 206.547 37.3618 208.17 37.3618C209.751 37.3618 211.054 37.8745 212.079 38.8999C213.105 39.8825 213.617 41.1215 213.617 42.6168C213.617 44.1122 213.105 45.3725 212.079 46.3979C211.054 47.3805 209.751 47.8718 208.17 47.8718Z" fill="#C91F28"/>
</svg>
